<mxfile host="app.diagrams.net" agent="Mozilla/5.0 (Macintosh; Intel Mac OS X 10_15_7) AppleWebKit/605.1.15 (KHTML, like Gecko) Version/18.6 Safari/605.1.15" version="28.1.1">
  <diagram name="Page-1" id="KUosfwAVPdiMLo6uLfG9">
    <mxGraphModel dx="913" dy="989" grid="1" gridSize="10" guides="1" tooltips="1" connect="1" arrows="1" fold="1" page="1" pageScale="1" pageWidth="850" pageHeight="1100" math="0" shadow="0">
      <root>
        <mxCell id="0" />
        <mxCell id="1" parent="0" />
        <mxCell id="OFhB1apj9XuWOLs8JsKp-82" value="Other services" style="fillColor=none;strokeColor=#5A6C86;dashed=1;verticalAlign=top;fontStyle=0;fontColor=#5A6C86;whiteSpace=wrap;html=1;" vertex="1" parent="1">
          <mxGeometry x="1730" y="1240" width="200" height="130" as="geometry" />
        </mxCell>
        <mxCell id="OFhB1apj9XuWOLs8JsKp-50" value="bigdata-public-b&lt;div&gt;(10.0.1.0/24)&lt;/div&gt;" style="points=[[0,0],[0.25,0],[0.5,0],[0.75,0],[1,0],[1,0.25],[1,0.5],[1,0.75],[1,1],[0.75,1],[0.5,1],[0.25,1],[0,1],[0,0.75],[0,0.5],[0,0.25]];outlineConnect=0;gradientColor=none;html=1;whiteSpace=wrap;fontSize=12;fontStyle=0;container=1;pointerEvents=0;collapsible=0;recursiveResize=0;shape=mxgraph.aws4.group;grIcon=mxgraph.aws4.group_security_group;grStroke=0;strokeColor=#7AA116;fillColor=#F2F6E8;verticalAlign=top;align=left;spacingLeft=30;fontColor=#248814;dashed=0;" vertex="1" parent="1">
          <mxGeometry x="1370" y="670" width="220" height="150" as="geometry" />
        </mxCell>
        <mxCell id="OFhB1apj9XuWOLs8JsKp-51" value="bigdata-public-a&lt;div&gt;(10.0.0.0/24)&lt;/div&gt;" style="points=[[0,0],[0.25,0],[0.5,0],[0.75,0],[1,0],[1,0.25],[1,0.5],[1,0.75],[1,1],[0.75,1],[0.5,1],[0.25,1],[0,1],[0,0.75],[0,0.5],[0,0.25]];outlineConnect=0;gradientColor=none;html=1;whiteSpace=wrap;fontSize=12;fontStyle=0;container=1;pointerEvents=0;collapsible=0;recursiveResize=0;shape=mxgraph.aws4.group;grIcon=mxgraph.aws4.group_security_group;grStroke=0;strokeColor=#7AA116;fillColor=#F2F6E8;verticalAlign=top;align=left;spacingLeft=30;fontColor=#248814;dashed=0;" vertex="1" parent="1">
          <mxGeometry x="1110" y="670" width="220" height="150" as="geometry" />
        </mxCell>
        <mxCell id="OFhB1apj9XuWOLs8JsKp-52" value="bigdata-redshift-private-a&lt;div&gt;(10.0.6.0/24)&lt;/div&gt;" style="points=[[0,0],[0.25,0],[0.5,0],[0.75,0],[1,0],[1,0.25],[1,0.5],[1,0.75],[1,1],[0.75,1],[0.5,1],[0.25,1],[0,1],[0,0.75],[0,0.5],[0,0.25]];outlineConnect=0;gradientColor=none;html=1;whiteSpace=wrap;fontSize=12;fontStyle=0;container=1;pointerEvents=0;collapsible=0;recursiveResize=0;shape=mxgraph.aws4.group;grIcon=mxgraph.aws4.group_security_group;grStroke=0;strokeColor=#00A4A6;fillColor=#E6F6F7;verticalAlign=top;align=left;spacingLeft=30;fontColor=#147EBA;dashed=0;" vertex="1" parent="1">
          <mxGeometry x="1110" y="1200" width="220" height="150" as="geometry" />
        </mxCell>
        <mxCell id="OFhB1apj9XuWOLs8JsKp-53" value="bigdata-airflow-private-b&lt;div&gt;(10.0.5.0/24)&lt;/div&gt;" style="points=[[0,0],[0.25,0],[0.5,0],[0.75,0],[1,0],[1,0.25],[1,0.5],[1,0.75],[1,1],[0.75,1],[0.5,1],[0.25,1],[0,1],[0,0.75],[0,0.5],[0,0.25]];outlineConnect=0;gradientColor=none;html=1;whiteSpace=wrap;fontSize=12;fontStyle=0;container=1;pointerEvents=0;collapsible=0;recursiveResize=0;shape=mxgraph.aws4.group;grIcon=mxgraph.aws4.group_security_group;grStroke=0;strokeColor=#00A4A6;fillColor=#E6F6F7;verticalAlign=top;align=left;spacingLeft=30;fontColor=#147EBA;dashed=0;" vertex="1" parent="1">
          <mxGeometry x="1370" y="840" width="220" height="160" as="geometry" />
        </mxCell>
        <mxCell id="OFhB1apj9XuWOLs8JsKp-54" value="" style="fillColor=none;strokeColor=light-dark(#000000,#FF7F93);dashed=1;verticalAlign=top;fontStyle=0;fontColor=#5A6C86;whiteSpace=wrap;html=1;" vertex="1" parent="1">
          <mxGeometry x="1728.77" y="610" width="200" height="180" as="geometry" />
        </mxCell>
        <mxCell id="OFhB1apj9XuWOLs8JsKp-55" value="bigdata-vpc-us-east-1 (10.0.0.0/16)" style="points=[[0,0],[0.25,0],[0.5,0],[0.75,0],[1,0],[1,0.25],[1,0.5],[1,0.75],[1,1],[0.75,1],[0.5,1],[0.25,1],[0,1],[0,0.75],[0,0.5],[0,0.25]];outlineConnect=0;gradientColor=none;html=1;whiteSpace=wrap;fontSize=12;fontStyle=0;container=1;pointerEvents=0;collapsible=0;recursiveResize=0;shape=mxgraph.aws4.group;grIcon=mxgraph.aws4.group_vpc2;strokeColor=#8C4FFF;fillColor=none;verticalAlign=top;align=left;spacingLeft=30;fontColor=#AAB7B8;dashed=0;" vertex="1" parent="1">
          <mxGeometry x="1090" y="610" width="600" height="760" as="geometry" />
        </mxCell>
        <mxCell id="OFhB1apj9XuWOLs8JsKp-56" value="IGW" style="sketch=0;outlineConnect=0;fontColor=#232F3E;gradientColor=none;fillColor=#8C4FFF;strokeColor=none;dashed=0;verticalLabelPosition=bottom;verticalAlign=top;align=center;html=1;fontSize=12;fontStyle=0;aspect=fixed;pointerEvents=1;shape=mxgraph.aws4.internet_gateway;" vertex="1" parent="OFhB1apj9XuWOLs8JsKp-55">
          <mxGeometry x="530" y="30" width="40" height="40" as="geometry" />
        </mxCell>
        <mxCell id="OFhB1apj9XuWOLs8JsKp-57" value="NAT Gateway" style="sketch=0;outlineConnect=0;fontColor=#232F3E;gradientColor=none;fillColor=#8C4FFF;strokeColor=none;dashed=0;verticalLabelPosition=bottom;verticalAlign=top;align=center;html=1;fontSize=12;fontStyle=0;aspect=fixed;pointerEvents=1;shape=mxgraph.aws4.nat_gateway;" vertex="1" parent="OFhB1apj9XuWOLs8JsKp-55">
          <mxGeometry x="370" y="110" width="40" height="40" as="geometry" />
        </mxCell>
        <mxCell id="OFhB1apj9XuWOLs8JsKp-58" value="bastion&lt;div&gt;&lt;font style=&quot;font-size: 10px;&quot;&gt;t3.micro&lt;/font&gt;&lt;/div&gt;" style="sketch=0;points=[[0,0,0],[0.25,0,0],[0.5,0,0],[0.75,0,0],[1,0,0],[0,1,0],[0.25,1,0],[0.5,1,0],[0.75,1,0],[1,1,0],[0,0.25,0],[0,0.5,0],[0,0.75,0],[1,0.25,0],[1,0.5,0],[1,0.75,0]];outlineConnect=0;fontColor=#232F3E;fillColor=#ED7100;strokeColor=#ffffff;dashed=0;verticalLabelPosition=bottom;verticalAlign=top;align=center;html=1;fontSize=12;fontStyle=0;aspect=fixed;shape=mxgraph.aws4.resourceIcon;resIcon=mxgraph.aws4.ec2;" vertex="1" parent="OFhB1apj9XuWOLs8JsKp-55">
          <mxGeometry x="110" y="130" width="40" height="40" as="geometry" />
        </mxCell>
        <mxCell id="OFhB1apj9XuWOLs8JsKp-59" value="bigdata-airflow-private-a&lt;div&gt;(10.0.4.0/24)&lt;/div&gt;" style="points=[[0,0],[0.25,0],[0.5,0],[0.75,0],[1,0],[1,0.25],[1,0.5],[1,0.75],[1,1],[0.75,1],[0.5,1],[0.25,1],[0,1],[0,0.75],[0,0.5],[0,0.25]];outlineConnect=0;gradientColor=none;html=1;whiteSpace=wrap;fontSize=12;fontStyle=0;container=1;pointerEvents=0;collapsible=0;recursiveResize=0;shape=mxgraph.aws4.group;grIcon=mxgraph.aws4.group_security_group;grStroke=0;strokeColor=#00A4A6;fillColor=#E6F6F7;verticalAlign=top;align=left;spacingLeft=30;fontColor=#147EBA;dashed=0;" vertex="1" parent="OFhB1apj9XuWOLs8JsKp-55">
          <mxGeometry x="20" y="230" width="220" height="160" as="geometry" />
        </mxCell>
        <mxCell id="OFhB1apj9XuWOLs8JsKp-60" value="&lt;span style=&quot;color: light-dark(rgb(0, 0, 0), rgb(255, 129, 217));&quot;&gt;MWAA&lt;/span&gt;" style="fillColor=none;strokeColor=light-dark(#000000,#FF81D9);dashed=1;verticalAlign=top;fontStyle=0;fontColor=#5A6C86;whiteSpace=wrap;html=1;" vertex="1" parent="OFhB1apj9XuWOLs8JsKp-55">
          <mxGeometry x="30" y="270" width="560" height="130" as="geometry" />
        </mxCell>
        <mxCell id="OFhB1apj9XuWOLs8JsKp-61" value="MWAA&lt;div&gt;&lt;font style=&quot;font-size: 10px;&quot;&gt;mw1.micro&lt;/font&gt;&lt;/div&gt;" style="sketch=0;points=[[0,0,0],[0.25,0,0],[0.5,0,0],[0.75,0,0],[1,0,0],[0,1,0],[0.25,1,0],[0.5,1,0],[0.75,1,0],[1,1,0],[0,0.25,0],[0,0.5,0],[0,0.75,0],[1,0.25,0],[1,0.5,0],[1,0.75,0]];outlineConnect=0;fontColor=#232F3E;fillColor=#E7157B;strokeColor=#ffffff;dashed=0;verticalLabelPosition=bottom;verticalAlign=top;align=center;html=1;fontSize=12;fontStyle=0;aspect=fixed;shape=mxgraph.aws4.resourceIcon;resIcon=mxgraph.aws4.managed_workflows_for_apache_airflow;" vertex="1" parent="OFhB1apj9XuWOLs8JsKp-55">
          <mxGeometry x="530" y="270" width="40" height="40" as="geometry" />
        </mxCell>
        <mxCell id="OFhB1apj9XuWOLs8JsKp-62" value="bigdata-private-redsift" style="fillColor=none;strokeColor=#DD3522;verticalAlign=top;fontStyle=0;fontColor=#DD3522;whiteSpace=wrap;html=1;" vertex="1" parent="OFhB1apj9XuWOLs8JsKp-55">
          <mxGeometry x="40" y="630" width="180" height="110" as="geometry" />
        </mxCell>
        <mxCell id="OFhB1apj9XuWOLs8JsKp-63" value="Redshift&lt;div&gt;&lt;font style=&quot;font-size: 10px;&quot;&gt;ra3.large&lt;/font&gt;&lt;/div&gt;" style="sketch=0;points=[[0,0,0],[0.25,0,0],[0.5,0,0],[0.75,0,0],[1,0,0],[0,1,0],[0.25,1,0],[0.5,1,0],[0.75,1,0],[1,1,0],[0,0.25,0],[0,0.5,0],[0,0.75,0],[1,0.25,0],[1,0.5,0],[1,0.75,0]];outlineConnect=0;fontColor=#232F3E;fillColor=#8C4FFF;strokeColor=#ffffff;dashed=0;verticalLabelPosition=bottom;verticalAlign=top;align=center;html=1;fontSize=12;fontStyle=0;aspect=fixed;shape=mxgraph.aws4.resourceIcon;resIcon=mxgraph.aws4.redshift;" vertex="1" parent="OFhB1apj9XuWOLs8JsKp-55">
          <mxGeometry x="110" y="660" width="40" height="40" as="geometry" />
        </mxCell>
        <mxCell id="OFhB1apj9XuWOLs8JsKp-64" value="bigdata-mwaa" style="fillColor=none;strokeColor=#DD3522;verticalAlign=top;fontStyle=0;fontColor=#DD3522;whiteSpace=wrap;html=1;" vertex="1" parent="OFhB1apj9XuWOLs8JsKp-55">
          <mxGeometry x="40" y="300" width="440" height="90" as="geometry" />
        </mxCell>
        <mxCell id="OFhB1apj9XuWOLs8JsKp-65" value="" style="fillColor=none;strokeColor=light-dark(#000000,#61820B);dashed=1;verticalAlign=top;fontStyle=0;fontColor=#5A6C86;whiteSpace=wrap;html=1;" vertex="1" parent="1">
          <mxGeometry x="1730" y="830" width="200" height="370" as="geometry" />
        </mxCell>
        <mxCell id="OFhB1apj9XuWOLs8JsKp-66" value="mwaa-data-bucket-us-east-1-...&lt;div&gt;&lt;font style=&quot;font-size: 10px;&quot;&gt;s3://.../dags/*.py&lt;/font&gt;&lt;/div&gt;&lt;div&gt;&lt;font style=&quot;font-size: 10px;&quot;&gt;s3://.../plugins/plugins.zip&lt;/font&gt;&lt;/div&gt;&lt;div&gt;&lt;font style=&quot;font-size: 10px;&quot;&gt;s3://.../requirements/requirements.txt&lt;/font&gt;&lt;/div&gt;" style="sketch=0;outlineConnect=0;fontColor=#232F3E;gradientColor=none;fillColor=#7AA116;strokeColor=none;dashed=0;verticalLabelPosition=bottom;verticalAlign=top;align=center;html=1;fontSize=12;fontStyle=0;aspect=fixed;pointerEvents=1;shape=mxgraph.aws4.bucket;" vertex="1" parent="1">
          <mxGeometry x="1809.54" y="880" width="38.46" height="40" as="geometry" />
        </mxCell>
        <mxCell id="OFhB1apj9XuWOLs8JsKp-67" value="emr-data-bucket-us-east-1-...&lt;div&gt;&lt;font style=&quot;font-size: 10px;&quot;&gt;s3://.../input/*.csv&lt;/font&gt;&lt;/div&gt;&lt;div&gt;&lt;font style=&quot;font-size: 10px;&quot;&gt;s3://.../output/*.parquet&lt;/font&gt;&lt;/div&gt;&lt;div&gt;&lt;font style=&quot;font-size: 10px;&quot;&gt;s3://.../logs/&lt;/font&gt;&lt;/div&gt;&lt;div&gt;&lt;font style=&quot;font-size: 10px;&quot;&gt;s3://.../scripts/*.py&lt;/font&gt;&lt;/div&gt;" style="sketch=0;outlineConnect=0;fontColor=#232F3E;gradientColor=none;fillColor=#7AA116;strokeColor=none;dashed=0;verticalLabelPosition=bottom;verticalAlign=top;align=center;html=1;fontSize=12;fontStyle=0;aspect=fixed;pointerEvents=1;shape=mxgraph.aws4.bucket;" vertex="1" parent="1">
          <mxGeometry x="1809.54" y="1060" width="38.46" height="40" as="geometry" />
        </mxCell>
        <mxCell id="OFhB1apj9XuWOLs8JsKp-68" value="S3" style="sketch=0;points=[[0,0,0],[0.25,0,0],[0.5,0,0],[0.75,0,0],[1,0,0],[0,1,0],[0.25,1,0],[0.5,1,0],[0.75,1,0],[1,1,0],[0,0.25,0],[0,0.5,0],[0,0.75,0],[1,0.25,0],[1,0.5,0],[1,0.75,0]];outlineConnect=0;fontColor=#232F3E;fillColor=#7AA116;strokeColor=#ffffff;dashed=0;verticalLabelPosition=bottom;verticalAlign=top;align=center;html=1;fontSize=12;fontStyle=0;aspect=fixed;shape=mxgraph.aws4.resourceIcon;resIcon=mxgraph.aws4.s3;" vertex="1" parent="1">
          <mxGeometry x="1730" y="830" width="40" height="40" as="geometry" />
        </mxCell>
        <mxCell id="OFhB1apj9XuWOLs8JsKp-69" value="bigdata-public-ssh" style="fillColor=none;strokeColor=#DD3522;verticalAlign=top;fontStyle=0;fontColor=#DD3522;whiteSpace=wrap;html=1;" vertex="1" parent="1">
          <mxGeometry x="1130" y="710" width="180" height="110" as="geometry" />
        </mxCell>
        <mxCell id="OFhB1apj9XuWOLs8JsKp-70" value="SES" style="sketch=0;points=[[0,0,0],[0.25,0,0],[0.5,0,0],[0.75,0,0],[1,0,0],[0,1,0],[0.25,1,0],[0.5,1,0],[0.75,1,0],[1,1,0],[0,0.25,0],[0,0.5,0],[0,0.75,0],[1,0.25,0],[1,0.5,0],[1,0.75,0]];outlineConnect=0;fontColor=#232F3E;fillColor=#DD344C;strokeColor=#ffffff;dashed=0;verticalLabelPosition=bottom;verticalAlign=top;align=center;html=1;fontSize=12;fontStyle=0;aspect=fixed;shape=mxgraph.aws4.resourceIcon;resIcon=mxgraph.aws4.simple_email_service;" vertex="1" parent="1">
          <mxGeometry x="1760" y="1290" width="40" height="40" as="geometry" />
        </mxCell>
        <mxCell id="OFhB1apj9XuWOLs8JsKp-71" value="IAM" style="sketch=0;points=[[0,0,0],[0.25,0,0],[0.5,0,0],[0.75,0,0],[1,0,0],[0,1,0],[0.25,1,0],[0.5,1,0],[0.75,1,0],[1,1,0],[0,0.25,0],[0,0.5,0],[0,0.75,0],[1,0.25,0],[1,0.5,0],[1,0.75,0]];outlineConnect=0;fontColor=#232F3E;fillColor=#DD344C;strokeColor=#ffffff;dashed=0;verticalLabelPosition=bottom;verticalAlign=top;align=center;html=1;fontSize=12;fontStyle=0;aspect=fixed;shape=mxgraph.aws4.resourceIcon;resIcon=mxgraph.aws4.identity_and_access_management;" vertex="1" parent="1">
          <mxGeometry x="1730" y="610" width="40" height="40" as="geometry" />
        </mxCell>
        <mxCell id="OFhB1apj9XuWOLs8JsKp-72" value="&lt;div&gt;roles&lt;/div&gt;&lt;font style=&quot;font-size: 10px;&quot;&gt;mwaa-role-...&lt;/font&gt;&lt;div&gt;&lt;font style=&quot;font-size: 10px;&quot;&gt;redshift-role-...&lt;/font&gt;&lt;/div&gt;" style="sketch=0;outlineConnect=0;fontColor=#232F3E;gradientColor=none;fillColor=#DD344C;strokeColor=none;dashed=0;verticalLabelPosition=bottom;verticalAlign=top;align=center;html=1;fontSize=12;fontStyle=0;aspect=fixed;pointerEvents=1;shape=mxgraph.aws4.role;" vertex="1" parent="1">
          <mxGeometry x="1760" y="683.43" width="40" height="22.57" as="geometry" />
        </mxCell>
        <mxCell id="OFhB1apj9XuWOLs8JsKp-73" value="us-east-1b" style="fillColor=none;strokeColor=#147EBA;dashed=1;verticalAlign=top;fontStyle=0;fontColor=#147EBA;whiteSpace=wrap;html=1;" vertex="1" parent="1">
          <mxGeometry x="1360" y="640" width="240" height="720" as="geometry" />
        </mxCell>
        <mxCell id="OFhB1apj9XuWOLs8JsKp-74" value="us-east-1a" style="fillColor=none;strokeColor=#147EBA;dashed=1;verticalAlign=top;fontStyle=0;fontColor=#147EBA;whiteSpace=wrap;html=1;" vertex="1" parent="1">
          <mxGeometry x="1100" y="640" width="240" height="720" as="geometry" />
        </mxCell>
        <mxCell id="OFhB1apj9XuWOLs8JsKp-75" value="bigdata-emr-private-a&lt;div&gt;(10.0.2.0/24)&lt;/div&gt;" style="points=[[0,0],[0.25,0],[0.5,0],[0.75,0],[1,0],[1,0.25],[1,0.5],[1,0.75],[1,1],[0.75,1],[0.5,1],[0.25,1],[0,1],[0,0.75],[0,0.5],[0,0.25]];outlineConnect=0;gradientColor=none;html=1;whiteSpace=wrap;fontSize=12;fontStyle=0;container=1;pointerEvents=0;collapsible=0;recursiveResize=0;shape=mxgraph.aws4.group;grIcon=mxgraph.aws4.group_security_group;grStroke=0;strokeColor=#00A4A6;fillColor=#E6F6F7;verticalAlign=top;align=left;spacingLeft=30;fontColor=#147EBA;dashed=0;" vertex="1" parent="1">
          <mxGeometry x="1110" y="1020" width="220" height="160" as="geometry" />
        </mxCell>
        <mxCell id="OFhB1apj9XuWOLs8JsKp-76" value="bigdata-emr-private-b&lt;div&gt;(10.0.3.0/24)&lt;/div&gt;" style="points=[[0,0],[0.25,0],[0.5,0],[0.75,0],[1,0],[1,0.25],[1,0.5],[1,0.75],[1,1],[0.75,1],[0.5,1],[0.25,1],[0,1],[0,0.75],[0,0.5],[0,0.25]];outlineConnect=0;gradientColor=none;html=1;whiteSpace=wrap;fontSize=12;fontStyle=0;container=1;pointerEvents=0;collapsible=0;recursiveResize=0;shape=mxgraph.aws4.group;grIcon=mxgraph.aws4.group_security_group;grStroke=0;strokeColor=#00A4A6;fillColor=#E6F6F7;verticalAlign=top;align=left;spacingLeft=30;fontColor=#147EBA;dashed=0;" vertex="1" parent="1">
          <mxGeometry x="1370" y="1020" width="220" height="160" as="geometry" />
        </mxCell>
        <mxCell id="OFhB1apj9XuWOLs8JsKp-77" value="&lt;span style=&quot;color: light-dark(rgb(0, 0, 0), rgb(177, 125, 255));&quot;&gt;EMR&lt;/span&gt;" style="fillColor=none;strokeColor=light-dark(#000000,#B17DFF);dashed=1;verticalAlign=top;fontStyle=0;fontColor=#5A6C86;whiteSpace=wrap;html=1;" vertex="1" parent="OFhB1apj9XuWOLs8JsKp-76">
          <mxGeometry x="-250" y="40" width="560" height="130" as="geometry" />
        </mxCell>
        <mxCell id="OFhB1apj9XuWOLs8JsKp-78" value="EMR&lt;div&gt;&lt;font style=&quot;font-size: 10px;&quot;&gt;Cluster&lt;/font&gt;&lt;/div&gt;" style="sketch=0;points=[[0,0,0],[0.25,0,0],[0.5,0,0],[0.75,0,0],[1,0,0],[0,1,0],[0.25,1,0],[0.5,1,0],[0.75,1,0],[1,1,0],[0,0.25,0],[0,0.5,0],[0,0.75,0],[1,0.25,0],[1,0.5,0],[1,0.75,0]];outlineConnect=0;fontColor=#232F3E;fillColor=#8C4FFF;strokeColor=#ffffff;dashed=0;verticalLabelPosition=bottom;verticalAlign=top;align=center;html=1;fontSize=12;fontStyle=0;aspect=fixed;shape=mxgraph.aws4.resourceIcon;resIcon=mxgraph.aws4.emr;" vertex="1" parent="OFhB1apj9XuWOLs8JsKp-76">
          <mxGeometry x="250" y="40" width="40" height="40" as="geometry" />
        </mxCell>
        <mxCell id="OFhB1apj9XuWOLs8JsKp-79" value="EMR Instances&lt;div&gt;&lt;font style=&quot;font-size: 10px;&quot;&gt;c3.xlarge&lt;/font&gt;&lt;/div&gt;" style="sketch=0;outlineConnect=0;fontColor=#232F3E;gradientColor=none;fillColor=#ED7100;strokeColor=none;dashed=0;verticalLabelPosition=bottom;verticalAlign=top;align=center;html=1;fontSize=12;fontStyle=0;aspect=fixed;pointerEvents=1;shape=mxgraph.aws4.instances;" vertex="1" parent="OFhB1apj9XuWOLs8JsKp-76">
          <mxGeometry x="-170" y="70" width="40" height="40" as="geometry" />
        </mxCell>
        <mxCell id="OFhB1apj9XuWOLs8JsKp-80" value="bigdata-redshift-private-b&lt;div&gt;(10.0.7.0/24)&lt;/div&gt;" style="points=[[0,0],[0.25,0],[0.5,0],[0.75,0],[1,0],[1,0.25],[1,0.5],[1,0.75],[1,1],[0.75,1],[0.5,1],[0.25,1],[0,1],[0,0.75],[0,0.5],[0,0.25]];outlineConnect=0;gradientColor=none;html=1;whiteSpace=wrap;fontSize=12;fontStyle=0;container=1;pointerEvents=0;collapsible=0;recursiveResize=0;shape=mxgraph.aws4.group;grIcon=mxgraph.aws4.group_security_group;grStroke=0;strokeColor=#00A4A6;fillColor=#E6F6F7;verticalAlign=top;align=left;spacingLeft=30;fontColor=#147EBA;dashed=0;" vertex="1" parent="1">
          <mxGeometry x="1370" y="1200" width="220" height="150" as="geometry" />
        </mxCell>
        <mxCell id="OFhB1apj9XuWOLs8JsKp-81" value="policies&lt;div&gt;&lt;font style=&quot;font-size: 10px;&quot;&gt;mwaa-policy-...&lt;/font&gt;&lt;/div&gt;&lt;div&gt;&lt;font style=&quot;font-size: 10px;&quot;&gt;redshift-policy-...&lt;/font&gt;&lt;/div&gt;" style="sketch=0;outlineConnect=0;fontColor=#232F3E;gradientColor=none;fillColor=#DD344C;strokeColor=none;dashed=0;verticalLabelPosition=bottom;verticalAlign=top;align=center;html=1;fontSize=12;fontStyle=0;aspect=fixed;pointerEvents=1;shape=mxgraph.aws4.permissions;" vertex="1" parent="1">
          <mxGeometry x="1860" y="666" width="31.79" height="40" as="geometry" />
        </mxCell>
        <mxCell id="OFhB1apj9XuWOLs8JsKp-84" value="us-east-1" style="points=[[0,0],[0.25,0],[0.5,0],[0.75,0],[1,0],[1,0.25],[1,0.5],[1,0.75],[1,1],[0.75,1],[0.5,1],[0.25,1],[0,1],[0,0.75],[0,0.5],[0,0.25]];outlineConnect=0;gradientColor=none;html=1;whiteSpace=wrap;fontSize=12;fontStyle=0;container=1;pointerEvents=0;collapsible=0;recursiveResize=0;shape=mxgraph.aws4.group;grIcon=mxgraph.aws4.group_region;strokeColor=#00A4A6;fillColor=none;verticalAlign=top;align=left;spacingLeft=30;fontColor=#147EBA;dashed=1;" vertex="1" parent="1">
          <mxGeometry x="1080" y="576" width="860" height="804" as="geometry" />
        </mxCell>
        <mxCell id="OFhB1apj9XuWOLs8JsKp-85" value="AWS Account" style="points=[[0,0],[0.25,0],[0.5,0],[0.75,0],[1,0],[1,0.25],[1,0.5],[1,0.75],[1,1],[0.75,1],[0.5,1],[0.25,1],[0,1],[0,0.75],[0,0.5],[0,0.25]];outlineConnect=0;gradientColor=none;html=1;whiteSpace=wrap;fontSize=12;fontStyle=0;container=1;pointerEvents=0;collapsible=0;recursiveResize=0;shape=mxgraph.aws4.group;grIcon=mxgraph.aws4.group_account;strokeColor=#CD2264;fillColor=none;verticalAlign=top;align=left;spacingLeft=30;fontColor=#CD2264;dashed=0;" vertex="1" parent="1">
          <mxGeometry x="1070" y="540" width="880" height="850" as="geometry" />
        </mxCell>
        <mxCell id="OFhB1apj9XuWOLs8JsKp-86" value="AWS Cloud" style="points=[[0,0],[0.25,0],[0.5,0],[0.75,0],[1,0],[1,0.25],[1,0.5],[1,0.75],[1,1],[0.75,1],[0.5,1],[0.25,1],[0,1],[0,0.75],[0,0.5],[0,0.25]];outlineConnect=0;gradientColor=none;html=1;whiteSpace=wrap;fontSize=12;fontStyle=0;container=1;pointerEvents=0;collapsible=0;recursiveResize=0;shape=mxgraph.aws4.group;grIcon=mxgraph.aws4.group_aws_cloud_alt;strokeColor=#232F3E;fillColor=none;verticalAlign=top;align=left;spacingLeft=30;fontColor=#232F3E;dashed=0;" vertex="1" parent="1">
          <mxGeometry x="1050" y="500" width="920" height="910" as="geometry" />
        </mxCell>
        <mxCell id="OFhB1apj9XuWOLs8JsKp-87" value="" style="edgeStyle=orthogonalEdgeStyle;html=1;endArrow=block;elbow=vertical;startArrow=none;endFill=1;strokeColor=#545B64;rounded=0;exitX=1;exitY=0.5;exitDx=0;exitDy=0;exitPerimeter=0;" edge="1" parent="1" source="OFhB1apj9XuWOLs8JsKp-61" target="OFhB1apj9XuWOLs8JsKp-66">
          <mxGeometry width="100" relative="1" as="geometry">
            <mxPoint x="1748" y="1014.63" as="sourcePoint" />
            <mxPoint x="1848" y="1014.63" as="targetPoint" />
          </mxGeometry>
        </mxCell>
        <mxCell id="OFhB1apj9XuWOLs8JsKp-88" value="" style="edgeStyle=orthogonalEdgeStyle;html=1;endArrow=block;elbow=vertical;startArrow=none;endFill=1;strokeColor=#545B64;rounded=0;exitX=1;exitY=0.5;exitDx=0;exitDy=0;exitPerimeter=0;" edge="1" parent="1" source="OFhB1apj9XuWOLs8JsKp-78" target="OFhB1apj9XuWOLs8JsKp-67">
          <mxGeometry width="100" relative="1" as="geometry">
            <mxPoint x="1580" y="1040" as="sourcePoint" />
            <mxPoint x="1680" y="1040" as="targetPoint" />
          </mxGeometry>
        </mxCell>
      </root>
    </mxGraphModel>
  </diagram>
</mxfile>
